<svg xmlns="http://www.w3.org/2000/svg" width="162.284" height="468.295" viewBox="0 0 162.284 468.295">
  <path id="Subtraction_1" data-name="Subtraction 1" d="M-429,468.295c-4.213,0-8.354-.292-8.4-.295a17.6,17.6,0,0,1-3.811-8.616c-.257-2.482,1.469-5.233,2.962-7.1a28.421,28.421,0,0,1,3.335-3.5l4.473-12.1,1.16-12.427c-.071-.263-7.141-26.379-8.119-28.334-.985-1.97-8.048-31.844-8.119-32.145a62.279,62.279,0,0,1,0-13.255c.816-6.2,1.321-24.833,1.326-25.02,0-.057.246-5.8.083-11.682-.151-5.442-.691-12.146-2.4-13.173a9.45,9.45,0,0,0-3.724-.957,8.42,8.42,0,0,1-3.829-1.064c-1.161-.816-1.726-2.268-1.726-4.441V263.035l-2.154-3.645V238.181l-10.273-17.895c-.089-.189-8.976-18.99-11.6-28.168-1.37-4.793-1.882-13.1-2.071-19.221-.2-6.617-.084-12.206-.083-12.262.023-.232,2.35-23.272,5.136-29.991,1.3-3.128,1.4-8.449,1.5-14.083.123-6.476.25-13.173,2.306-16.57,1.969-3.252,7.541-7.179,11.868-9.9,4.719-2.967,8.967-5.156,9.01-5.178l8.284-7.125,5.3-.994c.073-.049,7.288-4.977,6.794-6.131s-.005-9.034,0-9.113h-.006a16.192,16.192,0,0,1-3.723-1.284,14.361,14.361,0,0,1-6.214-5.509,27.421,27.421,0,0,1-2.982-9.072,38.218,38.218,0,0,1-.5-4.847c.008-.048.821-4.832,0-7.788s-.008-10.856,0-10.936a38.335,38.335,0,0,1,2.486-8.057,27.364,27.364,0,0,1,3.806-6.413,15.871,15.871,0,0,1,6.136-4.751A23.918,23.918,0,0,1-423.841.754c3.1,0,4.333,1.134,4.345,1.146A38.97,38.97,0,0,1-408.488,0c4.737,0,8.057,1.364,9.87,4.053a25.357,25.357,0,0,1,4,10.812,22.943,22.943,0,0,1,.145,5.1v9.61l7.29,2.32v.01a28.052,28.052,0,0,1-.25,4.442c-.3,2.1-1.022,4.724-2.734,5.323a4.068,4.068,0,0,0-2.485,3.5,9.561,9.561,0,0,0,0,2.63c-.04.1-3.975,9.813-3.812,12.262a50.2,50.2,0,0,1,0,5.3l-4.805,2.32,13.256,8.119.828-10.439c-.008-.04-.81-4.07.547-5.816a2.07,2.07,0,0,1,1.608-.812c.179-.009.357-.013.531-.013,3.047,0,4.262,1.325,4.274,1.339.03.161,2.991,16.076,5.136,17.067a7.4,7.4,0,0,0,2.933.442,30.765,30.765,0,0,0,4.689-.442l6.3,8.285a12.563,12.563,0,0,1,2.444,1.616,9.266,9.266,0,0,1,3.189,4.846c.978,4.238,5.1,14.15,5.137,14.25l4.639,5.3.994,3.811,9.279,12.262c.119.095,2.937,2.353,5.841,5.1,2.721,2.57,6.073,6.1,6.586,8.326.984,4.262,1.979,12.182,1.989,12.262.02.033,1.974,3.348,1.159,5.3-.8,1.916-3.449,6.949-4.971,7.456a29.379,29.379,0,0,1-6.977.932c-1.957,0-3.177-.314-3.627-.932a14.854,14.854,0,0,0-3.929-2.771c-1.967-1.143-4.2-2.437-5.35-3.857-2.126-2.617-9.7-16.1-9.776-16.239-.053-.059-5.316-5.994-6.628-8.616-1.3-2.591-4.5-8.689-4.639-8.948l-5.136,13.587,1.159,2.983-4.474,9.445.829,31.813c0,.174-.134,17.5,2.486,25.682.68,2.125,1.323,3.958,1.946,5.731,1.761,5.017,3.152,8.98,3.522,14.65.492,7.543,0,8.771,0,8.782.008.062.831,6.3.994,6.628.082.165,1.423,12.429,2.547,24.875,1.036,11.47,2.124,25.635,1.429,27.982-.772,2.607-1.5,15.81-2.082,26.419-.423,7.7-.789,14.341-1.066,15.171-.656,1.969-2.139,7.566-2.154,7.622,0,.144-.032,14.5-2.32,20.215-.515,1.287-1.248,3.242-2.1,5.506-2.941,7.838-7.861,20.947-11.986,28.3-5.243,9.339-6.286,16.335-6.3,16.4l1.989,6.959c.008.1.838,9.635,1.988,12.427.733,1.779,3.876,5.434,6.4,8.372a46.257,46.257,0,0,1,3.044,3.724c.983,1.638.01,10.515,0,10.6a7.4,7.4,0,0,1-1.867,1.7,10.8,10.8,0,0,1-6.043,1.7,16.157,16.157,0,0,1-3.522-.413,21.95,21.95,0,0,1-9.756-5.013c-2.227-2.01-3.666-4.27-3.666-5.758a48.459,48.459,0,0,0-.829-7.125l-8.947-9.445a24.694,24.694,0,0,1,.414-4.225,49.876,49.876,0,0,1,3.4-11.184,109.911,109.911,0,0,0,5.965-20.215c0-.09.293-9.113.911-18.641.567-8.731,1.53-19.569,2.9-21.623,2.624-3.934,3.636-10.866,3.646-10.936,0-.131.474-13.212-1.326-22.7a136.681,136.681,0,0,1-2.32-15.575c0-.654-2.46-9.193-2.485-9.279h-3.811l-.021-.079c-.662-2.634-3.971-15.879-4.121-17.982-.164-2.3-3.282-19.379-3.314-19.552v17.4l-2.983,3.812v0c.04.447.962,10.952,0,11.594-.981.653-2.635,3.451-2.651,3.479l-1.326,27.34-3.976,11.764,0,.01c.142.789,3.493,19.369,3.974,24.182.494,4.934.005,54.183,0,54.679l4.308,9.776V434.2l1.16,2.485v5.136l-1.16,4.308V451.6l-3.148,2.651v8.12a10.854,10.854,0,0,1-1.719,2.568A9.048,9.048,0,0,1-422.976,468,49.249,49.249,0,0,1-429,468.295Zm-35.279-297.589a35.824,35.824,0,0,0,1.7,12.967,37.008,37.008,0,0,0,2.262,5.663c.009.14.88,14.023,1.373,14.609a.131.131,0,0,0,.106.041c.518,0,2.375-1.523,4.226-3.465a29.2,29.2,0,0,0,5.178-7.164c1.224-2.67.579-8.249-.178-12.458-.825-4.588-1.944-8.542-1.955-8.581-.006-.179-.651-17.9-1.508-21.11a11.889,11.889,0,0,0-3.447-5.386l-1.939,8.4c-.053.115-5.3,11.548-5.816,16.37l0,.033c-.006.069-.007.079-.006.08Z" transform="translate(481.999 0)" fill="#6e57ce"/>
</svg>
